#!OML:ASF \\sashay\E\Suitcase\Project 1\Capture day 1\Session 1\Male1.ASF
:FULLY-SPECIFIED
:DEGREES
1
root 0.848944 17.49 -32.707 3.21093 3.35396 -1.39671
lowerback 3.397 -1.28201 0.188925
upperback -1.98109 -1.64298 1.62092
thorax -3.90357 -0.799709 1.6754
lowerneck -14.0629 -2.53492 -3.40428
upperneck 6.30069 -3.08997 3.3556
head 4.26553 -1.40641 1.34735
rclavicle 6.83633e-015 2.18663e-015
rhumerus -34.3692 -12.984 -76.7403
rradius 24.0581
rwrist -11.3019
rhand -16.5856 18.7232
rfingers 7.12502
rthumb 9.63515 -11.0365
lclavicle 6.83633e-015 2.18663e-015
lhumerus -33.2134 7.33532 88.0703
lradius 30.7367
lwrist -4.93939
lhand -3.93107 42.8923
lfingers 7.12502
lthumb 21.8202 71.6821
rfemur -8.93264 -0.731194 20.8435
rtibia 27.8352
rfoot -21.4005 -11.2727
rtoes 11.413
lfemur -8.63176 -4.06581 -18.2122
ltibia 26.0107
lfoot -20.3434 4.51404
ltoes -3.48714
2
root 0.853477 17.4963 -32.7062 3.21443 3.54484 -1.50921
lowerback 2.51081 -1.02749 -0.613986
upperback -1.45789 -1.33355 2.26719
thorax -2.83824 -0.630618 2.74288
lowerneck -13.9354 -2.78934 -3.50632
upperneck 5.67206 -3.32665 2.57141
head 4.0458 -1.57352 1.10707
rclavicle 1.01007e-014 -3.57812e-015
rhumerus -33.6807 -12.6025 -76.1556
rradius 24.4068
rwrist -11.5143
rhand -17.0185 17.7776
rfingers 7.12502
rthumb 9.21751 -12.0009
lclavicle 1.01007e-014 -3.57812e-015
lhumerus -32.1448 7.72633 89.1007
lradius 30.0863
lwrist -5.42158
lhand -4.02013 41.6404
lfingers 7.12502
lthumb 21.7346 70.4402
rfemur -8.76254 -1.07326 20.9595
rtibia 27.5701
rfoot -21.1391 -11.2898
rtoes 10.1368
lfemur -8.69715 -4.2613 -18.0733
ltibia 26.0477
lfoot -20.2904 4.2808
ltoes -2.20122
3
root 0.857739 17.4946 -32.7095 3.28715 3.72115 -1.41032
lowerback 2.63598 -0.930941 -0.478497
upperback -1.76026 -1.20259 1.96889
thorax -3.23619 -0.565466 2.36004
lowerneck -13.5687 -2.74793 -3.35721
upperneck 6.15219 -3.34393 2.82847
head 4.13828 -1.56635 1.16265
rclavicle 1.51822e-014 -3.06128e-014
rhumerus -34.3597 -13.1865 -76.2415
rradius 24.6026
rwrist -11.6505
rhand -16.6253 17.84
rfingers 7.12502
rthumb 9.59686 -11.9214
lclavicle 1.51822e-014 -3.06128e-014
lhumerus -32.706 6.98694 88.8895
lradius 30.2159
lwrist -5.21753
lhand -3.65944 41.9546
lfingers 7.12502
lthumb 22.081 70.7138
rfemur -8.73174 -1.13844 20.8348
rtibia 27.3801
rfoot -21.1715 -11.3977
rtoes 10.627
lfemur -8.85992 -4.1555 -18.1909
ltibia 26.1641
lfoot -20.3018 4.25576
ltoes -4.08264
4
root 0.861569 17.4973 -32.7102 3.22524 3.8964 -1.79921
lowerback 2.53791 -0.597241 -0.0836238
upperback -1.90592 -0.742511 1.86033
thorax -3.35747 -0.344639 2.00202
lowerneck -12.5166 -3.06807 -2.49494
upperneck 5.46199 -3.8959 2.35642
head 4.17522 -1.86029 0.949286
rclavicle -3.6713e-015 1.47101e-014
rhumerus -35.0047 -14.4001 -75.8862
rradius 24.6173
rwrist -11.1024
rhand -16.3579 18.3546
rfingers 7.12502
rthumb 9.85488 -11.3947
lclavicle -3.6713e-015 1.47101e-014
lhumerus -33.0204 5.84926 89.0261
lradius 30.1633
lwrist -5.23796
lhand -4.17009 42.0001
lfingers 7.12502
lthumb 21.5906 70.8165
rfemur -8.56644 -1.14568 21.2718
rtibia 27.1596
rfoot -21.0063 -11.3659
rtoes 11.248
lfemur -8.90507 -4.34052 -17.76
ltibia 26.2635
lfoot -20.3485 4.21339
ltoes -3.13902
5
root 0.872682 17.4974 -32.7105 3.32957 3.95524 -1.67738
lowerback 2.27532 -0.690134 -0.273992
upperback -1.65034 -0.875241 2.03026
thorax -2.93566 -0.408838 2.28365
lowerneck -13.7863 -2.83964 -2.765
upperneck 6.52502 -3.51145 2.20217
head 4.27088 -1.66865 0.857034
rclavicle -6.16232e-015 2.82274e-014
rhumerus -34.1315 -13.8855 -76.076
rradius 24.4741
rwrist -11.2941
rhand -16.0945 18.2409
rfingers 7.12502
rthumb 10.109 -11.4963
lclavicle -6.16232e-015 2.82274e-014
lhumerus -32.533 6.68323 89.0006
lradius 29.9017
lwrist -5.52118
lhand -3.98466 40.7222
lfingers 7.12502
lthumb 21.7687 69.5181
rfemur -8.59542 -1.0574 21.1002
rtibia 27.023
rfoot -21.0067 -11.655
rtoes 10.5952
lfemur -9.04829 -4.47041 -17.9553
ltibia 26.335
lfoot -20.3014 4.37307
ltoes -3.9559
6
root 0.876131 17.5031 -32.7078 3.29074 4.04492 -1.86984
lowerback 2.12361 -0.679519 -0.17756
upperback -1.57118 -0.855912 2.19818
thorax -2.76841 -0.400988 2.39829
lowerneck -13.4696 -2.89407 -2.47012
upperneck 5.94486 -3.57995 1.6167
head 4.02605 -1.73195 0.63245
rclavicle -1.39708e-014 1.51076e-014
rhumerus -33.8896 -13.3062 -76.2636
rradius 24.4706
rwrist -11.6066
rhand -16.8035 18.2228
rfingers 7.12502
rthumb 9.42497 -11.5465
lclavicle -1.39708e-014 1.51076e-014
lhumerus -32.4351 6.88488 89.1603
lradius 29.7969
lwrist -5.58545
lhand -3.67817 41.57
lfingers 7.12502
lthumb 22.063 70.3314
rfemur -8.44617 -1.12359 21.2986
rtibia 26.8326
rfoot -20.9681 -11.6506
rtoes 10.7037
lfemur -9.07927 -4.53728 -17.7403
ltibia 26.4455
lfoot -20.422 4.17382
ltoes -3.63986
7
root 0.88294 17.4995 -32.7062 3.33532 4.08938 -2.02745
lowerback 1.74161 -0.501418 -0.06351
upperback -1.68494 -0.617036 2.17552
thorax -2.6819 -0.284046 2.29663
lowerneck -12.5887 -2.92698 -2.50591
upperneck 5.7441 -3.65411 1.75674
head 4.26866 -1.77189 0.76511
rclavicle -2.79541e-015 1.27222e-014
rhumerus -34.3679 -13.6296 -76.0925
rradius 24.698
rwrist -11.8677
rhand -15.9559 18.5383
rfingers 7.12502
rthumb 10.2427 -11.1924
lclavicle -2.79541e-015 1.27222e-014
lhumerus -32.7044 6.94468 89.0299
lradius 29.4986
lwrist -6.09491
lhand -3.65916 41.3154
lfingers 7.12502
lthumb 22.0812 70.0747
rfemur -8.45553 -1.44792 21.4025
rtibia 26.6887
rfoot -20.8145 -11.4113
rtoes 10.5748
lfemur -9.17264 -4.47955 -17.5969
ltibia 26.5179
lfoot -20.3941 4.29559
ltoes -3.6336
8
root 0.881961 17.507 -32.7113 3.41307 4.22879 -2.10472
lowerback 2.00735 -0.490839 0.165937
upperback -1.8223 -0.593071 2.04363
thorax -2.97767 -0.275864 2.0354
lowerneck -13.2135 -2.91444 -2.22765
upperneck 6.7461 -3.68196 1.76884
head 4.23277 -1.76784 0.630274
rclavicle 1.46542e-014 9.54166e-015
rhumerus -34.4139 -13.6559 -76.4379
rradius 24.7802
rwrist -11.7474
rhand -16.485 17.7448
rfingers 7.12502
rthumb 9.73221 -12.0103
lclavicle 1.46542e-014 9.54166e-015
lhumerus -32.8347 6.52512 88.8648
lradius 29.6212
lwrist -5.60262
lhand -3.51526 41.5206
lfingers 7.12502
lthumb 22.2194 70.2635
rfemur -8.43957 -1.43685 21.5282
rtibia 26.5238
rfoot -20.7283 -11.4378
rtoes 10.4198
lfemur -9.34636 -4.57093 -17.4768
ltibia 26.5809
lfoot -20.4313 4.1326
ltoes -2.98114
9
root 0.877929 17.5046 -32.7149 3.3875 4.13543 -2.3773
lowerback 2.30135 -0.464556 0.278767
upperback -2.00866 -0.541039 2.20978
thorax -3.3376 -0.247883 2.14662
lowerneck -13.1671 -2.90819 -2.36501
upperneck 6.94658 -3.65797 1.81215
head 4.29009 -1.75718 0.666515
rclavicle 4.2366e-015 1.55052e-014
rhumerus -34.6409 -13.4206 -76.3904
rradius 24.8936
rwrist -11.6509
rhand -15.6035 18.1223
rfingers 7.12502
rthumb 10.5826 -11.5912
lclavicle 4.2366e-015 1.55052e-014
lhumerus -32.9879 6.90573 88.7832
lradius 29.2792
lwrist -5.97943
lhand -3.76518 42.1876
lfingers 7.12502
lthumb 21.9794 70.9589
rfemur -8.40703 -1.27872 21.826
rtibia 26.3968
rfoot -20.6428 -11.6017
rtoes 10.7238
lfemur -9.37116 -4.4608 -17.177
ltibia 26.6451
lfoot -20.3777 4.28686
ltoes -3.84534
10
root 0.886495 17.5104 -32.7153 3.4107 4.2808 -2.35352
lowerback 1.74483 -0.492469 0.121979
upperback -1.65696 -0.594946 2.37744
thorax -2.65581 -0.274757 2.3995
lowerneck -13.4296 -2.88225 -2.58634
upperneck 6.85215 -3.57527 1.80539
head 4.3053 -1.72145 0.703377
rclavicle -1.33061e-014 2.10712e-014
rhumerus -33.9692 -13.3956 -76.2927
rradius 24.9448
rwrist -11.5616
rhand -14.9877 18.0365
rfingers 7.12502
rthumb 11.1766 -11.6458
lclavicle -1.33061e-014 2.10712e-014
lhumerus -32.4301 7.14827 89.044
lradius 29.0614
lwrist -6.09436
lhand -4.09413 41.44
lfingers 7.12502
lthumb 21.6636 70.248
rfemur -8.35245 -1.35657 21.7711
rtibia 26.3035
rfoot -20.6698 -11.4677
rtoes 11.3077
lfemur -9.42647 -4.70396 -17.2153
ltibia 26.6723
lfoot -20.3936 4.19346
ltoes -3.08684
11
root 0.887804 17.5074 -32.7191 3.42143 4.50614 -2.29479
lowerback 1.81702 -0.558823 0.0332559
upperback -1.66585 -0.684543 2.39705
thorax -2.70081 -0.317273 2.47428
lowerneck -13.9379 -2.80346 -2.39054
upperneck 7.31537 -3.46215 1.46108
head 4.51832 -1.6785 0.564835
rclavicle -2.60284e-015 1.59028e-014
rhumerus -33.7955 -13.4878 -76.2711
rradius 24.9622
rwrist -11.3927
rhand -13.7941 17.8525
rfingers 7.12502
rthumb 12.3277 -11.7641
lclavicle -2.60284e-015 1.59028e-014
lhumerus -32.5069 7.3151 88.9526
lradius 28.9718
lwrist -6.21617
lhand -3.87995 40.7846
lfingers 7.12502
lthumb 21.8692 69.5687
rfemur -8.32576 -1.45563 21.733
rtibia 26.2508
rfoot -20.6268 -11.7729
rtoes 10.5276
lfemur -9.5043 -4.81845 -17.256
ltibia 26.7187
lfoot -20.453 4.07735
ltoes -2.80866
12
root 0.889156 17.511 -32.7183 3.37799 4.4748 -2.26919
lowerback 2.08934 -0.494841 -0.0309501
upperback -1.88139 -0.593269 2.38852
thorax -3.08006 -0.266739 2.50384
lowerneck -14.0338 -2.71475 -2.27475
upperneck 7.85317 -3.35612 1.3444
head 4.69483 -1.62993 0.513795
rclavicle -5.684e-015 -7.95139e-016
rhumerus -34.1713 -13.0523 -76.4208
rradius 25.3001
rwrist -11.5271
rhand -12.7901 17.1534
rfingers 7.12502
rthumb 13.2955 -12.4025
lclavicle -5.684e-015 -7.95139e-016
lhumerus -33.0211 7.57882 88.7944
lradius 28.9894
lwrist -6.51995
lhand -3.76389 40.7656
lfingers 7.12502
lthumb 21.9807 69.5367
rfemur -8.24175 -1.4158 21.673
rtibia 26.2269
rfoot -20.7398 -11.4201
rtoes 11.8625
lfemur -9.46372 -4.71355 -17.3069
ltibia 26.7226
lfoot -20.3776 4.04343
ltoes -2.90159
